<?xml version="1.0" encoding="UTF-8"?>
<svg xmlns="http://www.w3.org/2000/svg" width="16" height="16" fill="#ffffff">
  <path d="M2 2.8c0-.4.3-.8.8-.8h2.7a.8.8 0 0 1 0 1.6H3.6v1.9a.8.8 0 0 1-1.6 0z"/>
  <path d="M10.5 2.8c0-.4.3-.8.8-.8H14c.4 0 .8.3.8.8v2.7a.8.8 0 0 1-1.6 0V3.6h-1.9a.8.8 0 0 1-.8-.8z"/>
  <path d="M2.8 9.7c.4 0 .8.3.8.8v1.9h1.9a.8.8 0 0 1 0 1.6H2.8a.8.8 0 0 1-.8-.8v-2.7c0-.4.3-.8.8-.8z"/>
  <path d="M14 9.7c.4 0 .8.3.8.8v2.7c0 .4-.3.8-.8.8h-2.7a.8.8 0 0 1 0-1.6h1.9v-1.9c0-.4.3-.8.8-.8z"/>
  <path d="M8.2 5.1c-1.7 0-3.1 1.4-3.1 3.1s1.4 3.1 3.1 3.1 3.1-1.4 3.1-3.1-1.4-3.1-3.1-3.1zm0 1.5a1.6 1.6 0 1 1 0 3.2 1.6 1.6 0 0 1 0-3.2z"/>
</svg>
